<svg xmlns="http://www.w3.org/2000/svg" width="512" height="512" style="enable-background:new 0 0 512 512" viewBox="0 0 682.667 682.667"><defs><clipPath id="a" clipPathUnits="userSpaceOnUse"><path d="M0 512h512V0H0Z"/></clipPath></defs><g fill="none" stroke="#000" stroke-linecap="round" stroke-linejoin="round" stroke-width="20" clip-path="url(#a)" transform="matrix(1.33333 0 0 -1.33333 0 682.667)"><path stroke-miterlimit="22.926" d="M0 0c19.65 29.915 31.084 65.708 31.084 104.175 0 104.934-85.066 190-190 190s-190-85.066-190-190 85.066-190 190-190c31.269 0 60.771 7.556 86.786 20.937" style="stroke-width:20;stroke-linecap:round;stroke-linejoin:round;stroke-miterlimit:22.926;stroke-dasharray:none;stroke-opacity:1" transform="translate(470.916 207.826)"/><path stroke-miterlimit="22.926" d="M0 0c20.862 10.998 44.625 17.233 69.847 17.233 82.842 0 150-67.158 150-150 0-32.327-10.227-62.265-27.621-86.756M79.021-282.49c-3.588-.257-5.52-.277-9.174-.277-82.843 0-150 67.157-150 150 0 25.22 6.233 48.984 17.231 69.842" style="stroke-width:20;stroke-linecap:round;stroke-linejoin:round;stroke-miterlimit:22.926;stroke-dasharray:none;stroke-opacity:1" transform="translate(242.154 444.768)"/><path stroke-miterlimit="22.926" d="m0 0-132.274-138.035c-13.039-13.039-34.374-13.039-47.413 0-13.039 13.038-13.039 34.374 0 47.413L-42.566 40.785" style="stroke-width:20;stroke-linecap:round;stroke-linejoin:round;stroke-miterlimit:22.926;stroke-dasharray:none;stroke-opacity:1" transform="translate(199.465 157.814)"/><path stroke-miterlimit="22.926" d="m0 0 37.612-37.612" style="stroke-width:20;stroke-linecap:round;stroke-linejoin:round;stroke-miterlimit:22.926;stroke-dasharray:none;stroke-opacity:1" transform="translate(120.399 158.01)"/><path stroke-miterlimit="22.926" d="M0 0h.007" style="stroke-width:20;stroke-linecap:round;stroke-linejoin:round;stroke-miterlimit:22.926;stroke-dasharray:none;stroke-opacity:1" transform="translate(261.997 312.001)"/><path stroke-miterlimit="22.926" d="M0 0h.007" style="stroke-width:20;stroke-linecap:round;stroke-linejoin:round;stroke-miterlimit:22.926;stroke-dasharray:none;stroke-opacity:1" transform="translate(311.997 312.001)"/><path stroke-miterlimit="22.926" d="M0 0h.007" style="stroke-width:20;stroke-linecap:round;stroke-linejoin:round;stroke-miterlimit:22.926;stroke-dasharray:none;stroke-opacity:1" transform="translate(361.997 312.001)"/><path stroke-miterlimit="22.926" d="M0 0h133.295c12.375 0 22.5 10.125 22.5 22.5S145.67 45 133.295 45c-1.192 15.982-14.536 28.578-30.823 28.578-2.852 0-5.614-.388-8.236-1.112C85.869 86.398 70.612 95.72 53.178 95.72c-26.433 0-47.86-21.427-47.86-47.86H.157c-13.162 0-23.93-10.768-23.93-23.93C-23.773 10.923-13.054 0 0 0Z" style="stroke-width:20;stroke-linecap:round;stroke-linejoin:round;stroke-miterlimit:22.926;stroke-dasharray:none;stroke-opacity:1" transform="translate(346.206 142.96)"/><path stroke-miterlimit="22.926" d="M0 0c-5.359 9.178-15.313 15.346-26.709 15.346-2.853 0-5.614-.388-8.236-1.112-8.368 13.932-23.624 23.254-41.058 23.254-26.433 0-47.86-21.427-47.86-47.86h-5.161c-13.163 0-23.931-10.768-23.931-23.93 0-13.007 10.72-23.93 23.773-23.93h90.333" style="stroke-width:20;stroke-linecap:round;stroke-linejoin:round;stroke-miterlimit:22.926;stroke-dasharray:none;stroke-opacity:1" transform="translate(174.169 444.36)"/><path stroke-miterlimit="2.613" d="M0 0h.007" style="stroke-width:20;stroke-linecap:round;stroke-linejoin:round;stroke-miterlimit:2.613;stroke-dasharray:none;stroke-opacity:1" transform="translate(205.927 418.067)"/></g></svg>
