<svg xmlns="http://www.w3.org/2000/svg" width="512" height="512" viewBox="0 0 512 512"><path fill="#edefff" d="M0 0h511.987v511H0z"/><g fill="#b6b9cf"><path d="M200.79 337.56c-15.368 0-29.038-9.84-34.002-24.49l-.336-1.103c-1.17-3.88-1.661-7.142-1.661-10.406v-65.454l-23.29 77.74c-2.995 11.435 3.83 23.29 15.283 26.449L305.23 380.05a22.02 22.02 0 0 0 5.53.71c9.56 0 18.296-6.345 20.745-15.697l8.649-27.502zm26.401-100.8c10.59 0 19.2-8.611 19.2-19.2s-8.61-19.2-19.2-19.2-19.2 8.611-19.2 19.2 8.611 19.2 19.2 19.2zm0 0"/><path d="M347.19 169.56h-144c-13.227 0-24 10.771-24 24v105.6c0 13.229 10.773 24 24 24h144c13.23 0 24.001-10.771 24.001-24v-105.6c0-13.229-10.771-24-24-24zm-144 19.2h144a4.8 4.8 0 0 1 4.8 4.8v68.15l-30.325-35.385c-3.217-3.773-7.873-5.79-12.874-5.903a16.78 16.78 0 0 0-12.825 6.057l-35.656 42.796-11.615-11.588c-6.566-6.565-17.251-6.565-23.808 0l-26.496 26.487V193.56c0-2.65 2.15-4.8 4.8-4.8zm0 0"/></g></svg>
