<svg xmlns="http://www.w3.org/2000/svg" xml:space="preserve" width="512" height="512" style="enable-background:new 0 0 512 512" viewBox="0 0 128 128"><path fill="#ffc107" d="m66.312 2.779 5.626 6.805 8.211 3.248a3 3 0 0 1 1.429 4.4l-4.734 7.453-.551 8.812a3 3 0 0 1-3.742 2.719L64 34.015l-8.551 2.2a3 3 0 0 1-3.742-2.719l-.551-8.812-4.734-7.454a3 3 0 0 1 1.429-4.4l8.211-3.248 5.626-6.8a3 3 0 0 1 4.624-.003zM28.073 31.117l-4.423 5.35-6.456 2.554A2.5 2.5 0 0 0 16 42.686l3.722 5.861.433 6.929a2.5 2.5 0 0 0 3.118 2.265L30 56.012l6.724 1.729a2.5 2.5 0 0 0 3.118-2.265l.433-6.929L44 42.686a2.5 2.5 0 0 0-1.191-3.665l-6.459-2.554-4.423-5.35a2.5 2.5 0 0 0-3.854 0zm71.854 0 4.423 5.35 6.456 2.554A2.5 2.5 0 0 1 112 42.686l-3.722 5.861-.433 6.929a2.5 2.5 0 0 1-3.118 2.265L98 56.012l-6.724 1.729a2.5 2.5 0 0 1-3.118-2.265l-.433-6.929L84 42.686a2.5 2.5 0 0 1 1.191-3.665l6.456-2.554 4.423-5.35a2.5 2.5 0 0 1 3.857 0zM13 69.5v48a9 9 0 0 0 9 9h84a9 9 0 0 0 9-9v-48a3 3 0 0 0-3-3H16a3 3 0 0 0-3 3z"/><path fill="#ffb300" d="M80 66.5v60h26a9 9 0 0 0 9-9v-48a3 3 0 0 0-3-3z"/><path fill="#ffd54f" d="M2.818 78.565 11.2 68.63a6 6 0 0 1 4.585-2.13H80L68.35 80.305a9 9 0 0 1-6.878 3.195H5.11a3 3 0 0 1-2.292-4.935z"/><path fill="#ffc107" d="M125.182 78.565 116.8 68.63a6 6 0 0 0-4.585-2.13H80l11.65 13.805a9 9 0 0 0 6.878 3.195h24.362a3 3 0 0 0 2.292-4.935z"/><rect width="16" height="8" x="22" y="109.5" fill="#fff" rx="1.5"/><path d="m80.7 11.438-7.852-3.107-5.379-6.508a4.5 4.5 0 0 0-6.937 0l-5.38 6.508-7.852 3.107a4.5 4.5 0 0 0-2.144 6.6l4.527 7.129.527 8.427a4.5 4.5 0 0 0 5.612 4.078L64 35.563l8.179 2.1a4.5 4.5 0 0 0 5.611-4.078l.526-8.427 4.527-7.128a4.5 4.5 0 0 0-2.143-6.6zm-.389 4.988-4.734 7.454a1.484 1.484 0 0 0-.23.71L74.8 33.4a1.5 1.5 0 0 1-1.87 1.36l-8.552-2.2a1.5 1.5 0 0 0-.748 0l-8.551 2.2a1.5 1.5 0 0 1-1.87-1.36l-.552-8.811a1.485 1.485 0 0 0-.231-.71l-4.734-7.455a1.5 1.5 0 0 1 .715-2.2l8.211-3.248a1.508 1.508 0 0 0 .6-.439l5.626-6.8a1.5 1.5 0 0 1 2.312 0l5.625 6.805a1.5 1.5 0 0 0 .6.439l8.219 3.246a1.5 1.5 0 0 1 .714 2.2zm-43.05 18.789-4.178-5.055a4 4 0 0 0-6.166 0l-4.178 5.055-6.1 2.411a4 4 0 0 0-1.9 5.863l3.515 5.536.409 6.544a4 4 0 0 0 4.988 3.625L30 57.561l6.351 1.633a4 4 0 0 0 4.988-3.625l.409-6.544 3.515-5.535a4 4 0 0 0-1.905-5.864zm5.47 6.667-3.722 5.861a1.485 1.485 0 0 0-.231.71l-.433 6.929a1 1 0 0 1-1.247.906l-6.724-1.729a1.5 1.5 0 0 0-.748 0L22.9 56.288a1 1 0 0 1-1.247-.906l-.433-6.929a1.485 1.485 0 0 0-.231-.71l-3.722-5.862a1 1 0 0 1 .477-1.466l6.456-2.553a1.493 1.493 0 0 0 .605-.438l4.423-5.352a1 1 0 0 1 1.542 0l4.423 5.352a1.493 1.493 0 0 0 .6.438l6.455 2.553a1 1 0 0 1 .477 1.467zm40.005 1.607 3.516 5.536.409 6.545a4 4 0 0 0 4.989 3.624L98 57.561l6.351 1.633a4 4 0 0 0 4.988-3.625l.409-6.544 3.515-5.535a4 4 0 0 0-1.905-5.864l-6.1-2.411-4.178-5.055a4 4 0 0 0-6.166 0l-4.178 5.055-6.1 2.411a4 4 0 0 0-1.906 5.863zm2.426-2.453a.986.986 0 0 1 .583-.621l6.455-2.553a1.493 1.493 0 0 0 .605-.438l4.423-5.352a1 1 0 0 1 1.542 0l4.423 5.352a1.493 1.493 0 0 0 .605.438l6.456 2.553a1 1 0 0 1 .475 1.467l-3.721 5.861a1.5 1.5 0 0 0-.231.71l-.433 6.928a1 1 0 0 1-1.247.907l-6.724-1.729a1.5 1.5 0 0 0-.748 0L90.9 56.288a1 1 0 0 1-1.248-.906l-.433-6.929a1.5 1.5 0 0 0-.231-.71l-3.722-5.862a.986.986 0 0 1-.104-.845zM22 128h84a10.512 10.512 0 0 0 10.5-10.5V85h6.39a4.5 4.5 0 0 0 3.439-7.4l-8.385-9.936A7.484 7.484 0 0 0 112.213 65H15.788a7.488 7.488 0 0 0-5.732 2.662L1.672 77.6A4.5 4.5 0 0 0 5.11 85h6.39v32.5A10.512 10.512 0 0 0 22 128zm90.213-60a4.485 4.485 0 0 1 3.438 1.6l8.385 9.935A1.5 1.5 0 0 1 122.89 82H98.528a7.484 7.484 0 0 1-5.728-2.663L83.229 68zM81.5 70.6l9 10.668A10.475 10.475 0 0 0 98.528 85H113.5v32.5a7.508 7.508 0 0 1-7.5 7.5H81.5zm-3 54.4H22a7.508 7.508 0 0 1-7.5-7.5V85h46.972a10.475 10.475 0 0 0 8.028-3.728l9-10.668zM5.11 82a1.5 1.5 0 0 1-1.146-2.467l8.384-9.933a4.492 4.492 0 0 1 3.44-1.6h60.983L67.2 79.337A7.485 7.485 0 0 1 61.472 82z"/><path d="M71.5 115.5h-9a1.5 1.5 0 0 0 0 3h9a1.5 1.5 0 0 0 0-3zM61 109a1.5 1.5 0 0 0 1.5 1.5h9a1.5 1.5 0 0 0 0-3h-9A1.5 1.5 0 0 0 61 109zm-24.5-1h-13a3 3 0 0 0-3 3v5a3 3 0 0 0 3 3h13a3 3 0 0 0 3-3v-5a3 3 0 0 0-3-3zm-13 8v-5h13v5z"/></svg>
