<svg xmlns="http://www.w3.org/2000/svg" width="512" height="512" viewBox="0 0 24 24"><path d="M7.6 5.125a.831.831 0 0 1-.825-.825V1c0-.451.374-.825.825-.825s.825.374.825.825v3.3a.831.831 0 0 1-.825.825zm8.8 0a.831.831 0 0 1-.825-.825V1c0-.451.374-.825.825-.825s.825.374.825.825v3.3a.831.831 0 0 1-.825.825zM8.15 14.75c-.143 0-.286-.033-.418-.088a1.136 1.136 0 0 1-.363-.231 1.136 1.136 0 0 1-.319-.781c0-.143.033-.286.088-.418s.132-.253.231-.363c.11-.099.22-.176.363-.231a1.123 1.123 0 0 1 1.199.231c.198.209.319.495.319.781 0 .066-.011.143-.022.22a.7.7 0 0 1-.066.198.833.833 0 0 1-.099.198c-.033.055-.088.11-.132.165a1.157 1.157 0 0 1-.781.319zm3.85 0c-.143 0-.286-.033-.418-.088a1.136 1.136 0 0 1-.363-.231 1.136 1.136 0 0 1-.319-.781c0-.143.033-.286.088-.418s.132-.253.231-.363c.11-.099.22-.176.363-.231a1.103 1.103 0 0 1 1.199.231c.198.209.319.495.319.781 0 .066-.011.143-.022.22a.7.7 0 0 1-.066.198.833.833 0 0 1-.099.198c-.033.055-.088.11-.132.165a1.157 1.157 0 0 1-.781.319zm3.85 0c-.143 0-.286-.033-.418-.088a1.136 1.136 0 0 1-.363-.231l-.132-.165a.833.833 0 0 1-.099-.198.7.7 0 0 1-.066-.198 1.653 1.653 0 0 1-.022-.22c0-.286.121-.572.319-.781.11-.099.22-.176.363-.231a1.099 1.099 0 0 1 1.199.231c.198.209.319.495.319.781 0 .066-.011.143-.022.22a.7.7 0 0 1-.066.198.833.833 0 0 1-.099.198c-.033.055-.088.11-.132.165a1.157 1.157 0 0 1-.781.319zm-7.7 3.85c-.143 0-.286-.033-.418-.088s-.253-.132-.363-.231a1.157 1.157 0 0 1-.319-.781c0-.143.033-.286.088-.418.055-.143.132-.264.231-.363.407-.407 1.155-.407 1.562 0 .198.209.319.495.319.781s-.121.572-.319.781a1.157 1.157 0 0 1-.781.319zm3.85 0c-.286 0-.572-.121-.781-.319a1.157 1.157 0 0 1-.319-.781c0-.143.033-.286.088-.418.055-.143.132-.264.231-.363.407-.407 1.155-.407 1.562 0 .099.099.176.22.231.363.055.132.088.275.088.418 0 .286-.121.572-.319.781A1.157 1.157 0 0 1 12 18.6zm3.85 0c-.286 0-.572-.121-.781-.319a1.026 1.026 0 0 1-.231-.363c-.055-.132-.088-.275-.088-.418s.033-.286.088-.418c.055-.143.132-.264.231-.363.253-.253.638-.374.99-.297a.664.664 0 0 1 .209.066.833.833 0 0 1 .198.099c.055.033.11.088.165.132.198.209.319.495.319.781s-.121.572-.319.781a1.157 1.157 0 0 1-.781.319zm5.5-8.976H2.65c-.451 0-.825-.374-.825-.825s.374-.825.825-.825h18.7c.451 0 .825.374.825.825s-.374.825-.825.825z"/><path d="M16.4 23.825H7.6c-4.015 0-6.325-2.31-6.325-6.325V8.15c0-4.015 2.31-6.325 6.325-6.325h8.8c4.015 0 6.325 2.31 6.325 6.325v9.35c0 4.015-2.31 6.325-6.325 6.325zM7.6 3.475c-3.146 0-4.675 1.529-4.675 4.675v9.35c0 3.146 1.529 4.675 4.675 4.675h8.8c3.146 0 4.675-1.529 4.675-4.675V8.15c0-3.146-1.529-4.675-4.675-4.675z"/></svg>
