<svg xmlns="http://www.w3.org/2000/svg" width="512" height="512" viewBox="0 0 32 32"><path d="M8.689 12.535a.9.9 0 0 0 0 1.8h9.65a.9.9 0 0 0 0-1.8zm4.339 5.109H8.689a.9.9 0 0 0 0 1.8h4.339a.9.9 0 0 0 0-1.8z"/><path d="M12.895 29.1h-6.85a2.677 2.677 0 0 1-2.67-2.68V8.19a2.677 2.677 0 0 1 2.67-2.68h1.859v.226a2.383 2.383 0 0 0 2.381 2.38h8.6a2.383 2.383 0 0 0 2.381-2.38V5.51h1.85c1.497 0 2.669 1.177 2.669 2.68v5.13a.9.9 0 0 0 1.8 0V8.19a4.48 4.48 0 0 0-4.47-4.48h-1.85v-.23a2.383 2.383 0 0 0-2.381-2.38h-8.6a2.383 2.383 0 0 0-2.381 2.38v.23H6.045a4.481 4.481 0 0 0-4.471 4.48v18.23c0 2.47 2.006 4.48 4.471 4.48h6.85a.9.9 0 0 0 0-1.8zM9.705 3.48c0-.32.26-.58.58-.58h8.6c.32 0 .58.26.58.58v2.255c0 .32-.26.58-.58.58h-8.6a.58.58 0 0 1-.58-.58z"/><path d="M29.47 17.358c-1.232-1.233-3.383-1.234-4.616 0l-7.979 7.979a1.736 1.736 0 0 0-.486.942l-.438 2.589a1.742 1.742 0 0 0 2.008 2.007l2.588-.437c.359-.061.685-.229.942-.486l7.979-7.979a3.268 3.268 0 0 0 .002-4.615zm-9.222 11.306-2.521.503.422-2.557 5.719-5.719 2.071 2.071zm7.948-7.964-.986.988-2.07-2.07.987-.987a1.455 1.455 0 0 1 1.034-.429 1.464 1.464 0 0 1 1.035 2.498z"/></svg>
