<?xml version="1.0" encoding="utf-8"?>
<svg xmlns="http://www.w3.org/2000/svg">
<symbol id="account" viewBox="0 0 18 18"><path d="M16.7 5.7a8.38 8.38 0 0 0-11-4.5c-2 .9-3.6 2.5-4.5 4.6-.8 2.1-.8 4.4 0 6.4 1.3 3.2 4.5 5.1 7.7 5.1 1.1 0 2.2-.2 3.2-.7a8.2 8.2 0 0 0 4.6-10.9zM11.9 16c-3.9 1.6-8.4-.2-10-4.1-.8-1.9-.8-4 0-5.8S4.1 2.7 6 1.9C9.9.3 14.4 2.1 16 6c1.7 3.9-.2 8.4-4.1 10zM6.7 5.2c0-1.3 1-2.3 2.3-2.3s2.3 1 2.3 2.3-1 2.3-2.3 2.3-2.3-1-2.3-2.3zm6.5 7.3c0 .6-.5 1.1-1.1 1.1H5.9c-.6 0-1.1-.5-1.1-1.1 0-2.3 1.9-4.2 4.2-4.2s4.2 1.9 4.2 4.2zM9 8.3z"/>
</symbol>
<symbol id="question" viewBox="0 0 512 512"><path d="M256 0C114.509 0 0 114.496 0 256c0 141.489 114.496 256 256 256 141.491 0 256-114.496 256-256C512 114.509 397.504 0 256 0zm0 476.279c-121.462 0-220.279-98.816-220.279-220.279S134.538 35.721 256 35.721c121.463 0 220.279 98.816 220.279 220.279S377.463 476.279 256 476.279z"/><path d="M248.425 323.924c-14.153 0-25.61 11.794-25.61 25.946 0 13.817 11.12 25.948 25.61 25.948s25.946-12.131 25.946-25.948c0-14.152-11.794-25.946-25.946-25.946zm4.38-196.455c-45.492 0-66.384 26.959-66.384 45.155 0 13.142 11.12 19.208 20.218 19.208 18.197 0 10.784-25.948 45.155-25.948 16.848 0 30.328 7.414 30.328 22.915 0 18.196-18.871 28.642-29.991 38.077-9.773 8.423-22.577 22.24-22.577 51.22 0 17.522 4.718 22.577 18.533 22.577 16.511 0 19.881-7.413 19.881-13.817 0-17.522.337-27.631 18.871-42.121 9.098-7.076 37.74-29.991 37.74-61.666s-28.642-55.6-71.774-55.6z"/>
</symbol></svg>