<?xml version="1.0" encoding="utf-8"?>
<svg xmlns="http://www.w3.org/2000/svg">
<symbol id="account" viewBox="0 0 18 18"><path d="M16.7 5.7a8.38 8.38 0 0 0-11-4.5c-2 .9-3.6 2.5-4.5 4.6-.8 2.1-.8 4.4 0 6.4 1.3 3.2 4.5 5.1 7.7 5.1 1.1 0 2.2-.2 3.2-.7a8.2 8.2 0 0 0 4.6-10.9zM11.9 16c-3.9 1.6-8.4-.2-10-4.1-.8-1.9-.8-4 0-5.8S4.1 2.7 6 1.9C9.9.3 14.4 2.1 16 6c1.7 3.9-.2 8.4-4.1 10zM6.7 5.2c0-1.3 1-2.3 2.3-2.3s2.3 1 2.3 2.3-1 2.3-2.3 2.3-2.3-1-2.3-2.3zm6.5 7.3c0 .6-.5 1.1-1.1 1.1H5.9c-.6 0-1.1-.5-1.1-1.1 0-2.3 1.9-4.2 4.2-4.2s4.2 1.9 4.2 4.2zM9 8.3z"/>
</symbol>
<symbol id="alert" viewBox="0 0 512 512"><path d="M505.403 406.394 295.389 58.102c-8.274-13.721-23.367-22.245-39.39-22.245s-31.116 8.524-39.391 22.246L6.595 406.394c-8.551 14.182-8.804 31.95-.661 46.37 8.145 14.42 23.491 23.378 40.051 23.378h420.028c16.56 0 31.907-8.958 40.052-23.379 8.143-14.421 7.89-32.189-.662-46.369zm-28.364 29.978a12.684 12.684 0 0 1-11.026 6.436H45.985a12.68 12.68 0 0 1-11.025-6.435 12.683 12.683 0 0 1 .181-12.765L245.156 75.316A12.732 12.732 0 0 1 256 69.192c4.41 0 8.565 2.347 10.843 6.124l210.013 348.292a12.677 12.677 0 0 1 .183 12.764z"/><path d="M256.154 173.005c-12.68 0-22.576 6.804-22.576 18.866 0 36.802 4.329 89.686 4.329 126.489.001 9.587 8.352 13.607 18.248 13.607 7.422 0 17.937-4.02 17.937-13.607 0-36.802 4.329-89.686 4.329-126.489 0-12.061-10.205-18.866-22.267-18.866zm.311 180.301c-13.607 0-23.814 10.824-23.814 23.814 0 12.68 10.206 23.814 23.814 23.814 12.68 0 23.505-11.134 23.505-23.814 0-12.99-10.826-23.814-23.505-23.814z"/>
</symbol>
<symbol id="arrow-right" viewBox="0 0 20 20"><path d="M13.8 9.8v.4c0 .1-.1.1-.1.2l-3.3 3.3c-.1.1-.2.1-.4.1s-.3 0-.4-.1c-.2-.2-.2-.5 0-.7l2.5-2.5H6.7c-.3 0-.5-.2-.5-.5s.2-.5.5-.5h5.5L9.6 7c-.2-.2-.2-.5 0-.7s.5-.2.7 0l3.3 3.3c.1.1.2.1.2.2zm5 .2c0 4.9-4 8.8-8.8 8.8-4.9 0-8.8-4-8.8-8.8 0-4.9 4-8.8 8.8-8.8 4.9 0 8.8 3.9 8.8 8.8zm-1 0c0-4.3-3.5-7.8-7.8-7.8S2.2 5.7 2.2 10s3.5 7.8 7.8 7.8 7.8-3.5 7.8-7.8z"/>
</symbol>
<symbol id="calendar" viewBox="0 0 24 24"><path d="M7.6 5.125a.831.831 0 0 1-.825-.825V1c0-.451.374-.825.825-.825s.825.374.825.825v3.3a.831.831 0 0 1-.825.825zm8.8 0a.831.831 0 0 1-.825-.825V1c0-.451.374-.825.825-.825s.825.374.825.825v3.3a.831.831 0 0 1-.825.825zM8.15 14.75c-.143 0-.286-.033-.418-.088a1.136 1.136 0 0 1-.363-.231 1.136 1.136 0 0 1-.319-.781c0-.143.033-.286.088-.418s.132-.253.231-.363c.11-.099.22-.176.363-.231a1.123 1.123 0 0 1 1.199.231c.198.209.319.495.319.781 0 .066-.011.143-.022.22a.7.7 0 0 1-.066.198.833.833 0 0 1-.099.198c-.033.055-.088.11-.132.165a1.157 1.157 0 0 1-.781.319zm3.85 0c-.143 0-.286-.033-.418-.088a1.136 1.136 0 0 1-.363-.231 1.136 1.136 0 0 1-.319-.781c0-.143.033-.286.088-.418s.132-.253.231-.363c.11-.099.22-.176.363-.231a1.103 1.103 0 0 1 1.199.231c.198.209.319.495.319.781 0 .066-.011.143-.022.22a.7.7 0 0 1-.066.198.833.833 0 0 1-.099.198c-.033.055-.088.11-.132.165a1.157 1.157 0 0 1-.781.319zm3.85 0c-.143 0-.286-.033-.418-.088a1.136 1.136 0 0 1-.363-.231l-.132-.165a.833.833 0 0 1-.099-.198.7.7 0 0 1-.066-.198 1.653 1.653 0 0 1-.022-.22c0-.286.121-.572.319-.781.11-.099.22-.176.363-.231a1.099 1.099 0 0 1 1.199.231c.198.209.319.495.319.781 0 .066-.011.143-.022.22a.7.7 0 0 1-.066.198.833.833 0 0 1-.099.198c-.033.055-.088.11-.132.165a1.157 1.157 0 0 1-.781.319zm-7.7 3.85c-.143 0-.286-.033-.418-.088s-.253-.132-.363-.231a1.157 1.157 0 0 1-.319-.781c0-.143.033-.286.088-.418.055-.143.132-.264.231-.363.407-.407 1.155-.407 1.562 0 .198.209.319.495.319.781s-.121.572-.319.781a1.157 1.157 0 0 1-.781.319zm3.85 0c-.286 0-.572-.121-.781-.319a1.157 1.157 0 0 1-.319-.781c0-.143.033-.286.088-.418.055-.143.132-.264.231-.363.407-.407 1.155-.407 1.562 0 .099.099.176.22.231.363.055.132.088.275.088.418 0 .286-.121.572-.319.781A1.157 1.157 0 0 1 12 18.6zm3.85 0c-.286 0-.572-.121-.781-.319a1.026 1.026 0 0 1-.231-.363c-.055-.132-.088-.275-.088-.418s.033-.286.088-.418c.055-.143.132-.264.231-.363.253-.253.638-.374.99-.297a.664.664 0 0 1 .209.066.833.833 0 0 1 .198.099c.055.033.11.088.165.132.198.209.319.495.319.781s-.121.572-.319.781a1.157 1.157 0 0 1-.781.319zm5.5-8.976H2.65c-.451 0-.825-.374-.825-.825s.374-.825.825-.825h18.7c.451 0 .825.374.825.825s-.374.825-.825.825z"/><path d="M16.4 23.825H7.6c-4.015 0-6.325-2.31-6.325-6.325V8.15c0-4.015 2.31-6.325 6.325-6.325h8.8c4.015 0 6.325 2.31 6.325 6.325v9.35c0 4.015-2.31 6.325-6.325 6.325zM7.6 3.475c-3.146 0-4.675 1.529-4.675 4.675v9.35c0 3.146 1.529 4.675 4.675 4.675h8.8c3.146 0 4.675-1.529 4.675-4.675V8.15c0-3.146-1.529-4.675-4.675-4.675z"/>
</symbol>
<symbol id="chevron-left" viewBox="0 0 24 24"><path d="M15.77 4.26a1 1 0 0 1 0 1.26L9.93 12l5.84 6.48a1 1 0 0 1 0 1.26.74.74 0 0 1-1.14 0l-6.4-7.11a.96.96 0 0 1 0-1.26l6.4-7.11a.74.74 0 0 1 1.14 0Z"/>
</symbol>
<symbol id="clock" viewBox="0 0 359.286 359.286"><path d="M179.643 359.286c99.043 0 179.643-80.6 179.643-179.643S278.687 0 179.643 0 0 80.6 0 179.643s80.6 179.643 179.643 179.643zm0-335.334c85.869 0 155.691 69.821 155.691 155.691s-69.821 155.691-155.691 155.691S23.952 265.513 23.952 179.643 93.774 23.952 179.643 23.952z"/><path d="M232.039 236.89c2.216 1.796 4.85 2.635 7.485 2.635a11.91 11.91 0 0 0 9.341-4.491c4.132-5.15 3.293-12.695-1.856-16.827l-55.39-44.312V83.834c0-6.587-5.389-11.976-11.976-11.976s-11.976 5.389-11.976 11.976v95.81c0 3.653 1.677 7.066 4.491 9.341z"/>
</symbol>
<symbol id="form" viewBox="0 0 32 32"><path d="M8.689 12.535a.9.9 0 0 0 0 1.8h9.65a.9.9 0 0 0 0-1.8zm4.339 5.109H8.689a.9.9 0 0 0 0 1.8h4.339a.9.9 0 0 0 0-1.8z"/><path d="M12.895 29.1h-6.85a2.677 2.677 0 0 1-2.67-2.68V8.19a2.677 2.677 0 0 1 2.67-2.68h1.859v.226a2.383 2.383 0 0 0 2.381 2.38h8.6a2.383 2.383 0 0 0 2.381-2.38V5.51h1.85c1.497 0 2.669 1.177 2.669 2.68v5.13a.9.9 0 0 0 1.8 0V8.19a4.48 4.48 0 0 0-4.47-4.48h-1.85v-.23a2.383 2.383 0 0 0-2.381-2.38h-8.6a2.383 2.383 0 0 0-2.381 2.38v.23H6.045a4.481 4.481 0 0 0-4.471 4.48v18.23c0 2.47 2.006 4.48 4.471 4.48h6.85a.9.9 0 0 0 0-1.8zM9.705 3.48c0-.32.26-.58.58-.58h8.6c.32 0 .58.26.58.58v2.255c0 .32-.26.58-.58.58h-8.6a.58.58 0 0 1-.58-.58z"/><path d="M29.47 17.358c-1.232-1.233-3.383-1.234-4.616 0l-7.979 7.979a1.736 1.736 0 0 0-.486.942l-.438 2.589a1.742 1.742 0 0 0 2.008 2.007l2.588-.437c.359-.061.685-.229.942-.486l7.979-7.979a3.268 3.268 0 0 0 .002-4.615zm-9.222 11.306-2.521.503.422-2.557 5.719-5.719 2.071 2.071zm7.948-7.964-.986.988-2.07-2.07.987-.987a1.455 1.455 0 0 1 1.034-.429 1.464 1.464 0 0 1 1.035 2.498z"/>
</symbol>
<symbol id="image" viewBox="0 0 512 512"><path d="M446.575 0H65.425C29.349 0 0 29.35 0 65.426v381.149C0 482.65 29.349 512 65.425 512h381.15C482.651 512 512 482.65 512 446.574V65.426C512 29.35 482.651 0 446.575 0zm35.267 446.575c0 19.447-15.821 35.267-35.267 35.267H65.425c-19.447 0-35.268-15.821-35.268-35.267v-55.007l99.255-84.451a9.745 9.745 0 0 1 12.562-.075l62.174 51.628c5.995 4.977 14.795 4.569 20.304-.946L372.181 209.77c2.67-2.675 5.783-2.935 7.408-2.852 1.62.083 4.695.661 7.078 3.596l95.176 117.19v118.871zm0-166.71-71.766-88.366a39.98 39.98 0 0 0-28.942-14.701c-11.268-.57-22.317 3.672-30.294 11.662L212.832 326.681l-51.59-42.839a39.85 39.85 0 0 0-51.373.308l-79.712 67.822V65.426c0-19.447 15.821-35.268 35.268-35.268h381.15c19.447 0 35.267 15.821 35.267 35.268v214.439z"/><path d="M161.174 62.995c-40.095 0-72.713 32.62-72.713 72.713 0 40.094 32.619 72.713 72.713 72.713s72.713-32.619 72.713-72.713-32.618-72.713-72.713-72.713zm0 115.269c-23.466 0-42.556-19.091-42.556-42.556 0-23.466 19.09-42.556 42.556-42.556 23.466 0 42.556 19.091 42.556 42.556s-19.09 42.556-42.556 42.556z"/>
</symbol>
<symbol id="lock" viewBox="0 0 34 34"><path d="M17 1c-5 0-9 4-9 9v4c-1.7 0-3 1.3-3 3v13c0 1.7 1.3 3 3 3h18c1.7 0 3-1.3 3-3V17c0-1.7-1.3-3-3-3v-4c0-5-4-9-9-9zm10 16v13c0 .6-.4 1-1 1H8c-.6 0-1-.4-1-1V17c0-.6.4-1 1-1h18c.6 0 1 .4 1 1zm-17-3v-4c0-3.9 3.1-7 7-7s7 3.1 7 7v4z"/><path d="M17 19c-1.7 0-3 1.3-3 3 0 1.3.8 2.4 2 2.8V27c0 .6.4 1 1 1s1-.4 1-1v-2.2c1.2-.4 2-1.5 2-2.8 0-1.7-1.3-3-3-3zm0 4c-.6 0-1-.4-1-1s.4-1 1-1 1 .4 1 1-.4 1-1 1z"/>
</symbol>
<symbol id="logout" viewBox="0 0 512.016 512"><path d="M496 240.008H293.332c-8.832 0-16-7.168-16-16s7.168-16 16-16H496c8.832 0 16 7.168 16 16s-7.168 16-16 16zm0 0"/><path d="M416 320.008a15.89 15.89 0 0 1-11.309-4.692c-6.25-6.253-6.25-16.386 0-22.636l68.696-68.692-68.696-68.695c-6.25-6.25-6.25-16.383 0-22.633 6.254-6.254 16.387-6.254 22.637 0l80 80c6.25 6.25 6.25 16.383 0 22.633l-80 80A15.896 15.896 0 0 1 416 320.008zm-245.332 192c-4.566 0-8.898-.64-13.227-1.985L29.055 467.25C11.585 461.148 0 444.871 0 426.676v-384C0 19.145 19.137.008 42.668.008c4.562 0 8.895.64 13.227 1.984l128.382 42.774c17.473 6.101 29.055 22.379 29.055 40.574v384c0 23.531-19.133 42.668-42.664 42.668zm-128-480c-5.867 0-10.668 4.8-10.668 10.668v384c0 4.543 3.05 8.765 7.402 10.281l127.785 42.582c.918.297 2.114.469 3.481.469 5.867 0 10.664-4.801 10.664-10.668v-384c0-4.543-3.05-8.766-7.402-10.281L46.145 32.477c-.918-.297-2.114-.47-3.477-.47zm0 0"/><path d="M325.332 170.676c-8.832 0-16-7.168-16-16v-96c0-14.7-11.965-26.668-26.664-26.668h-240c-8.832 0-16-7.168-16-16s7.168-16 16-16h240c32.363 0 58.664 26.305 58.664 58.668v96c0 8.832-7.168 16-16 16zm-42.664 277.332h-85.336c-8.832 0-16-7.168-16-16s7.168-16 16-16h85.336c14.7 0 26.664-11.969 26.664-26.668v-96c0-8.832 7.168-16 16-16s16 7.168 16 16v96c0 32.363-26.3 58.668-58.664 58.668zm0 0"/>
</symbol>
<symbol id="menu" viewBox="0 0 512 512"><path d="M128 102.4c0-14.138 11.462-25.6 25.6-25.6h332.8c14.138 0 25.6 11.462 25.6 25.6S500.538 128 486.4 128H153.6c-14.138 0-25.6-11.463-25.6-25.6zm358.4 128H25.6C11.462 230.4 0 241.863 0 256c0 14.138 11.462 25.6 25.6 25.6h460.8c14.138 0 25.6-11.462 25.6-25.6 0-14.137-11.462-25.6-25.6-25.6zm0 153.6H256c-14.137 0-25.6 11.462-25.6 25.6 0 14.137 11.463 25.6 25.6 25.6h230.4c14.138 0 25.6-11.463 25.6-25.6 0-14.138-11.462-25.6-25.6-25.6z"/>
</symbol>
<symbol id="question" viewBox="0 0 512 512"><path d="M256 0C114.509 0 0 114.496 0 256c0 141.489 114.496 256 256 256 141.491 0 256-114.496 256-256C512 114.509 397.504 0 256 0zm0 476.279c-121.462 0-220.279-98.816-220.279-220.279S134.538 35.721 256 35.721c121.463 0 220.279 98.816 220.279 220.279S377.463 476.279 256 476.279z"/><path d="M248.425 323.924c-14.153 0-25.61 11.794-25.61 25.946 0 13.817 11.12 25.948 25.61 25.948s25.946-12.131 25.946-25.948c0-14.152-11.794-25.946-25.946-25.946zm4.38-196.455c-45.492 0-66.384 26.959-66.384 45.155 0 13.142 11.12 19.208 20.218 19.208 18.197 0 10.784-25.948 45.155-25.948 16.848 0 30.328 7.414 30.328 22.915 0 18.196-18.871 28.642-29.991 38.077-9.773 8.423-22.577 22.24-22.577 51.22 0 17.522 4.718 22.577 18.533 22.577 16.511 0 19.881-7.413 19.881-13.817 0-17.522.337-27.631 18.871-42.121 9.098-7.076 37.74-29.991 37.74-61.666s-28.642-55.6-71.774-55.6z"/>
</symbol>
<symbol id="star" viewBox="0 0 32 32"><path d="m31.163 13.545-6.79 6.619 1.604 9.348a1.09 1.09 0 0 1-1.582 1.149L16 26.247 7.606 30.66a1.09 1.09 0 0 1-1.582-1.148l1.604-9.348-6.79-6.618a1.09 1.09 0 0 1 .604-1.86l9.384-1.362 4.196-8.504c.368-.744 1.589-.744 1.956 0l4.196 8.504 9.384 1.363a1.092 1.092 0 0 1 .605 1.86z"/>
</symbol>
<symbol id="times" viewBox="0 0 512 512"><path d="M25 512a25 25 0 0 1-17.68-42.68l462-462a25 25 0 0 1 35.36 35.36l-462 462A24.93 24.93 0 0 1 25 512z"/><path d="M487 512a24.93 24.93 0 0 1-17.68-7.32l-462-462A25 25 0 0 1 42.68 7.32l462 462A25 25 0 0 1 487 512z"/>
</symbol></svg>