<?xml version="1.0" encoding="utf-8"?>
<svg xmlns="http://www.w3.org/2000/svg">
<symbol id="account" viewBox="0 0 18 18"><path d="M16.7 5.7a8.38 8.38 0 0 0-11-4.5c-2 .9-3.6 2.5-4.5 4.6-.8 2.1-.8 4.4 0 6.4 1.3 3.2 4.5 5.1 7.7 5.1 1.1 0 2.2-.2 3.2-.7a8.2 8.2 0 0 0 4.6-10.9zM11.9 16c-3.9 1.6-8.4-.2-10-4.1-.8-1.9-.8-4 0-5.8S4.1 2.7 6 1.9C9.9.3 14.4 2.1 16 6c1.7 3.9-.2 8.4-4.1 10zM6.7 5.2c0-1.3 1-2.3 2.3-2.3s2.3 1 2.3 2.3-1 2.3-2.3 2.3-2.3-1-2.3-2.3zm6.5 7.3c0 .6-.5 1.1-1.1 1.1H5.9c-.6 0-1.1-.5-1.1-1.1 0-2.3 1.9-4.2 4.2-4.2s4.2 1.9 4.2 4.2zM9 8.3z"/>
</symbol>
<symbol id="arrow-right" viewBox="0 0 20 20"><path d="M13.8 9.8v.4c0 .1-.1.1-.1.2l-3.3 3.3c-.1.1-.2.1-.4.1s-.3 0-.4-.1c-.2-.2-.2-.5 0-.7l2.5-2.5H6.7c-.3 0-.5-.2-.5-.5s.2-.5.5-.5h5.5L9.6 7c-.2-.2-.2-.5 0-.7s.5-.2.7 0l3.3 3.3c.1.1.2.1.2.2zm5 .2c0 4.9-4 8.8-8.8 8.8-4.9 0-8.8-4-8.8-8.8 0-4.9 4-8.8 8.8-8.8 4.9 0 8.8 3.9 8.8 8.8zm-1 0c0-4.3-3.5-7.8-7.8-7.8S2.2 5.7 2.2 10s3.5 7.8 7.8 7.8 7.8-3.5 7.8-7.8z"/>
</symbol>
<symbol id="calendar" viewBox="0 0 24 24"><path d="M7.6 5.125a.831.831 0 0 1-.825-.825V1c0-.451.374-.825.825-.825s.825.374.825.825v3.3a.831.831 0 0 1-.825.825zm8.8 0a.831.831 0 0 1-.825-.825V1c0-.451.374-.825.825-.825s.825.374.825.825v3.3a.831.831 0 0 1-.825.825zM8.15 14.75c-.143 0-.286-.033-.418-.088a1.136 1.136 0 0 1-.363-.231 1.136 1.136 0 0 1-.319-.781c0-.143.033-.286.088-.418s.132-.253.231-.363c.11-.099.22-.176.363-.231a1.123 1.123 0 0 1 1.199.231c.198.209.319.495.319.781 0 .066-.011.143-.022.22a.7.7 0 0 1-.066.198.833.833 0 0 1-.099.198c-.033.055-.088.11-.132.165a1.157 1.157 0 0 1-.781.319zm3.85 0c-.143 0-.286-.033-.418-.088a1.136 1.136 0 0 1-.363-.231 1.136 1.136 0 0 1-.319-.781c0-.143.033-.286.088-.418s.132-.253.231-.363c.11-.099.22-.176.363-.231a1.103 1.103 0 0 1 1.199.231c.198.209.319.495.319.781 0 .066-.011.143-.022.22a.7.7 0 0 1-.066.198.833.833 0 0 1-.099.198c-.033.055-.088.11-.132.165a1.157 1.157 0 0 1-.781.319zm3.85 0c-.143 0-.286-.033-.418-.088a1.136 1.136 0 0 1-.363-.231l-.132-.165a.833.833 0 0 1-.099-.198.7.7 0 0 1-.066-.198 1.653 1.653 0 0 1-.022-.22c0-.286.121-.572.319-.781.11-.099.22-.176.363-.231a1.099 1.099 0 0 1 1.199.231c.198.209.319.495.319.781 0 .066-.011.143-.022.22a.7.7 0 0 1-.066.198.833.833 0 0 1-.099.198c-.033.055-.088.11-.132.165a1.157 1.157 0 0 1-.781.319zm-7.7 3.85c-.143 0-.286-.033-.418-.088s-.253-.132-.363-.231a1.157 1.157 0 0 1-.319-.781c0-.143.033-.286.088-.418.055-.143.132-.264.231-.363.407-.407 1.155-.407 1.562 0 .198.209.319.495.319.781s-.121.572-.319.781a1.157 1.157 0 0 1-.781.319zm3.85 0c-.286 0-.572-.121-.781-.319a1.157 1.157 0 0 1-.319-.781c0-.143.033-.286.088-.418.055-.143.132-.264.231-.363.407-.407 1.155-.407 1.562 0 .099.099.176.22.231.363.055.132.088.275.088.418 0 .286-.121.572-.319.781A1.157 1.157 0 0 1 12 18.6zm3.85 0c-.286 0-.572-.121-.781-.319a1.026 1.026 0 0 1-.231-.363c-.055-.132-.088-.275-.088-.418s.033-.286.088-.418c.055-.143.132-.264.231-.363.253-.253.638-.374.99-.297a.664.664 0 0 1 .209.066.833.833 0 0 1 .198.099c.055.033.11.088.165.132.198.209.319.495.319.781s-.121.572-.319.781a1.157 1.157 0 0 1-.781.319zm5.5-8.976H2.65c-.451 0-.825-.374-.825-.825s.374-.825.825-.825h18.7c.451 0 .825.374.825.825s-.374.825-.825.825z"/><path d="M16.4 23.825H7.6c-4.015 0-6.325-2.31-6.325-6.325V8.15c0-4.015 2.31-6.325 6.325-6.325h8.8c4.015 0 6.325 2.31 6.325 6.325v9.35c0 4.015-2.31 6.325-6.325 6.325zM7.6 3.475c-3.146 0-4.675 1.529-4.675 4.675v9.35c0 3.146 1.529 4.675 4.675 4.675h8.8c3.146 0 4.675-1.529 4.675-4.675V8.15c0-3.146-1.529-4.675-4.675-4.675z"/>
</symbol>
<symbol id="chevron-left" viewBox="0 0 24 24"><path d="M15.77 4.26a1 1 0 0 1 0 1.26L9.93 12l5.84 6.48a1 1 0 0 1 0 1.26.74.74 0 0 1-1.14 0l-6.4-7.11a.96.96 0 0 1 0-1.26l6.4-7.11a.74.74 0 0 1 1.14 0Z"/>
</symbol>
<symbol id="clock" viewBox="0 0 359.286 359.286"><path d="M179.643 359.286c99.043 0 179.643-80.6 179.643-179.643S278.687 0 179.643 0 0 80.6 0 179.643s80.6 179.643 179.643 179.643zm0-335.334c85.869 0 155.691 69.821 155.691 155.691s-69.821 155.691-155.691 155.691S23.952 265.513 23.952 179.643 93.774 23.952 179.643 23.952z"/><path d="M232.039 236.89c2.216 1.796 4.85 2.635 7.485 2.635a11.91 11.91 0 0 0 9.341-4.491c4.132-5.15 3.293-12.695-1.856-16.827l-55.39-44.312V83.834c0-6.587-5.389-11.976-11.976-11.976s-11.976 5.389-11.976 11.976v95.81c0 3.653 1.677 7.066 4.491 9.341z"/>
</symbol>
<symbol id="lock" viewBox="0 0 34 34"><path d="M17 1c-5 0-9 4-9 9v4c-1.7 0-3 1.3-3 3v13c0 1.7 1.3 3 3 3h18c1.7 0 3-1.3 3-3V17c0-1.7-1.3-3-3-3v-4c0-5-4-9-9-9zm10 16v13c0 .6-.4 1-1 1H8c-.6 0-1-.4-1-1V17c0-.6.4-1 1-1h18c.6 0 1 .4 1 1zm-17-3v-4c0-3.9 3.1-7 7-7s7 3.1 7 7v4z"/><path d="M17 19c-1.7 0-3 1.3-3 3 0 1.3.8 2.4 2 2.8V27c0 .6.4 1 1 1s1-.4 1-1v-2.2c1.2-.4 2-1.5 2-2.8 0-1.7-1.3-3-3-3zm0 4c-.6 0-1-.4-1-1s.4-1 1-1 1 .4 1 1-.4 1-1 1z"/>
</symbol>
<symbol id="logout" viewBox="0 0 512.016 512"><path d="M496 240.008H293.332c-8.832 0-16-7.168-16-16s7.168-16 16-16H496c8.832 0 16 7.168 16 16s-7.168 16-16 16zm0 0"/><path d="M416 320.008a15.89 15.89 0 0 1-11.309-4.692c-6.25-6.253-6.25-16.386 0-22.636l68.696-68.692-68.696-68.695c-6.25-6.25-6.25-16.383 0-22.633 6.254-6.254 16.387-6.254 22.637 0l80 80c6.25 6.25 6.25 16.383 0 22.633l-80 80A15.896 15.896 0 0 1 416 320.008zm-245.332 192c-4.566 0-8.898-.64-13.227-1.985L29.055 467.25C11.585 461.148 0 444.871 0 426.676v-384C0 19.145 19.137.008 42.668.008c4.562 0 8.895.64 13.227 1.984l128.382 42.774c17.473 6.101 29.055 22.379 29.055 40.574v384c0 23.531-19.133 42.668-42.664 42.668zm-128-480c-5.867 0-10.668 4.8-10.668 10.668v384c0 4.543 3.05 8.765 7.402 10.281l127.785 42.582c.918.297 2.114.469 3.481.469 5.867 0 10.664-4.801 10.664-10.668v-384c0-4.543-3.05-8.766-7.402-10.281L46.145 32.477c-.918-.297-2.114-.47-3.477-.47zm0 0"/><path d="M325.332 170.676c-8.832 0-16-7.168-16-16v-96c0-14.7-11.965-26.668-26.664-26.668h-240c-8.832 0-16-7.168-16-16s7.168-16 16-16h240c32.363 0 58.664 26.305 58.664 58.668v96c0 8.832-7.168 16-16 16zm-42.664 277.332h-85.336c-8.832 0-16-7.168-16-16s7.168-16 16-16h85.336c14.7 0 26.664-11.969 26.664-26.668v-96c0-8.832 7.168-16 16-16s16 7.168 16 16v96c0 32.363-26.3 58.668-58.664 58.668zm0 0"/>
</symbol>
<symbol id="question" viewBox="0 0 512 512"><path d="M256 0C114.509 0 0 114.496 0 256c0 141.489 114.496 256 256 256 141.491 0 256-114.496 256-256C512 114.509 397.504 0 256 0zm0 476.279c-121.462 0-220.279-98.816-220.279-220.279S134.538 35.721 256 35.721c121.463 0 220.279 98.816 220.279 220.279S377.463 476.279 256 476.279z"/><path d="M248.425 323.924c-14.153 0-25.61 11.794-25.61 25.946 0 13.817 11.12 25.948 25.61 25.948s25.946-12.131 25.946-25.948c0-14.152-11.794-25.946-25.946-25.946zm4.38-196.455c-45.492 0-66.384 26.959-66.384 45.155 0 13.142 11.12 19.208 20.218 19.208 18.197 0 10.784-25.948 45.155-25.948 16.848 0 30.328 7.414 30.328 22.915 0 18.196-18.871 28.642-29.991 38.077-9.773 8.423-22.577 22.24-22.577 51.22 0 17.522 4.718 22.577 18.533 22.577 16.511 0 19.881-7.413 19.881-13.817 0-17.522.337-27.631 18.871-42.121 9.098-7.076 37.74-29.991 37.74-61.666s-28.642-55.6-71.774-55.6z"/>
</symbol></svg>